#!OML:ASF I:\Actors\actors\Patient Classification 1\Patient 1\Session 1\Subject1.ASF
:FULLY-SPECIFIED
:DEGREES
1213
root -0.731097 17.5441 7.59318 7.28525 5.77345 -7.14311
lowerback 3.03176 1.62089 6.15414
upperback -9.94277 2.84381 0.332814
thorax -12.1894 0.8095 -3.45162
lowerneck -10.0469 -7.45415 -6.05147
upperneck 21.9075 -10.8468 6.66681
head 9.23325 -4.93123 2.04627
rclavicle -3.63776e-014 -4.85035e-014
rhumerus -49.5451 -19.9666 -65.8741
rradius 38.9353
rwrist 53.2942
rhand -21.8964 -21.8799
rfingers 7.12502
rthumb 4.50877 -411.812
lclavicle -3.63776e-014 -4.85035e-014
lhumerus -50.3236 30.7466 55.0004
lradius 47.8775
lwrist -7.14712
lhand -30.9907 -31.4234
lfingers 7.12502
lthumb -4.27417 -1.48653
rfemur 1.27132 23.7082 27.7647
rtibia 0.0361191
rfoot -14.6503 -27.7937
rtoes 9.26251
lfemur 2.70585 -38.0904 -11.4635
ltibia -2.7279
lfoot -8.88865 39.1449
ltoes -7.13254
1214
root -0.711293 17.5357 7.6013 7.24928 5.60306 -7.14905
lowerback 2.86078 1.31012 5.64868
upperback -10.0031 2.41695 0.851327
thorax -12.2321 0.682029 -2.54722
lowerneck -9.91233 -6.94664 -5.97175
upperneck 22.5555 -10.0391 6.00257
head 9.333 -4.60819 1.91223
rclavicle -9.34288e-015 0
rhumerus -51.2969 -20.3041 -65.1438
rradius 35.3692
rwrist 53.012
rhand -19.3368 -21.2631
rfingers 7.12502
rthumb 6.98 -411.128
lclavicle -9.34288e-015 0
lhumerus -52.0905 34.1389 52.6271
lradius 42.5784
lwrist -10.7631
lhand -30.0975 -29.8683
lfingers 7.12502
lthumb -3.41161 0.0841215
rfemur 1.15649 23.2671 27.6231
rtibia 0.260527
rfoot -14.5169 -27.2182
rtoes 8.6704
lfemur 2.94436 -38.2152 -11.7278
ltibia -2.76189
lfoot -9.02871 39.4214
ltoes -6.94151
1215
root -0.695004 17.5286 7.61126 7.15264 5.52055 -7.12535
lowerback 2.71625 1.14298 5.6627
upperback -10.0426 2.1877 0.912851
thorax -12.2112 0.573656 -2.45505
lowerneck -9.82568 -6.66529 -5.76559
upperneck 23.1789 -9.65499 5.69827
head 9.48102 -4.43637 1.8238
rclavicle -1.50082e-014 1.90833e-014
rhumerus -53.7253 -21.8028 -63.7782
rradius 32.2224
rwrist 52.9704
rhand -16.9296 -21.9437
rfingers 7.12502
rthumb 9.30329 -411.718
lclavicle -1.50082e-014 1.90833e-014
lhumerus -53.9802 37.2308 49.413
lradius 37.6398
lwrist -14.3022
lhand -28.689 -26.912
lfingers 7.12502
lthumb -2.0513 3.05787
rfemur 1.21532 23.0212 27.5492
rtibia 0.388655
rfoot -14.5253 -26.9108
rtoes 8.40036
lfemur 3.22041 -38.1979 -12.0038
ltibia -2.80559
lfoot -9.21824 39.4702
ltoes -6.55806
1216
root -0.681057 17.5251 7.62505 6.99707 5.47917 -7.06989
lowerback 2.58785 0.954785 5.65387
upperback -10.0528 1.92437 0.944614
thorax -12.1676 0.450171 -2.37909
lowerneck -9.71533 -6.36526 -5.53584
upperneck 23.7728 -9.2655 5.47695
head 9.62015 -4.25283 1.76095
rclavicle 1.00386e-014 3.97569e-015
rhumerus -56.5359 -23.7332 -61.4299
rradius 29.4959
rwrist 53.8773
rhand -13.2962 -22.0875
rfingers 7.12502
rthumb 12.8077 -411.675
lclavicle 1.00386e-014 3.97569e-015
lhumerus -56.5323 40.156 45.5295
lradius 33.3415
lwrist -16.9058
lhand -26.787 -22.1287
lfingers 7.12502
lthumb -0.214339 7.85095
rfemur 1.44568 22.9907 27.537
rtibia 0.429644
rfoot -14.5701 -26.8941
rtoes 8.31529
lfemur 3.55562 -37.9466 -12.2905
ltibia -2.89851
lfoot -9.26061 39.2422
ltoes -6.41603
1217
root -0.66563 17.5236 7.63967 6.85583 5.31876 -6.99999
lowerback 2.47265 0.819762 5.67704
upperback -10.0698 1.73453 0.949555
thorax -12.1324 0.35688 -2.36021
lowerneck -9.58156 -6.08017 -5.43013
upperneck 24.3327 -8.91866 5.44901
head 9.76422 -4.08086 1.78042
rclavicle 1.12313e-014 -1.82882e-014
rhumerus -59.6913 -25.8768 -58.013
rradius 27.051
rwrist 55.7342
rhand -8.86952 -22.4657
rfingers 7.12502
rthumb 17.072 -411.736
lclavicle 1.12313e-014 -1.82882e-014
lhumerus -59.8021 42.8359 40.93
lradius 29.6144
lwrist -18.7615
lhand -24.387 -16.2803
lfingers 7.12502
lthumb 2.10364 13.689
rfemur 1.63525 23.0797 27.4997
rtibia 0.519581
rfoot -14.5431 -26.9011
rtoes 7.85884
lfemur 3.93973 -37.7987 -12.6504
ltibia -2.97328
lfoot -9.29683 39.2134
ltoes -6.47039
1218
root -0.64813 17.5227 7.65257 6.72474 5.08108 -6.95786
lowerback 2.38478 0.683266 5.73049
upperback -10.0854 1.55112 0.994302
thorax -12.1132 0.265602 -2.31666
lowerneck -9.39525 -5.79125 -5.37265
upperneck 24.7076 -8.54888 5.43316
head 9.83491 -3.9055 1.81688
rclavicle 7.45443e-015 -6.36111e-015
rhumerus -62.9489 -27.7314 -53.9748
rradius 24.9326
rwrist 57.8977
rhand -3.80874 -23.3883
rfingers 7.12502
rthumb 21.9376 -412.164
lclavicle 7.45443e-015 -6.36111e-015
lhumerus -64.54 45.5652 34.6531
lradius 26.4024
lwrist -21.1061
lhand -20.8314 -11.3792
lfingers 7.12502
lthumb 5.53715 18.5285
rfemur 1.76379 23.181 27.4651
rtibia 0.651446
rfoot -14.5211 -26.8219
rtoes 7.38803
lfemur 4.39154 -37.986 -13.0786
ltibia -3.00862
lfoot -9.5031 39.5625
ltoes -6.21569
1219
root -0.630645 17.5227 7.66422 6.60346 4.78178 -6.97293
lowerback 2.28706 0.516099 5.79123
upperback -10.0801 1.32999 1.09396
thorax -12.068 0.15971 -2.21295
lowerneck -9.25095 -5.43868 -5.14583
upperneck 25.0177 -8.06429 5.22602
head 9.86731 -3.68206 1.77109
rclavicle 7.95139e-015 1.70955e-014
rhumerus -66.2645 -29.3115 -49.3882
rradius 23.0695
rwrist 60.4852
rhand 1.12844 -24.3948
rfingers 7.12502
rthumb 26.6708 -412.536
lclavicle 7.95139e-015 1.70955e-014
lhumerus -70.9314 48.0777 26.5639
lradius 23.759
lwrist -24.1837
lhand -17.085 -7.58761
lfingers 7.12502
lthumb 9.15337 22.1937
rfemur 1.84351 23.2378 27.4773
rtibia 0.821236
rfoot -14.4974 -26.6374
rtoes 6.89873
lfemur 4.82412 -37.9741 -13.3825
ltibia -3.10823
lfoot -9.67967 39.7794
ltoes -5.91164
1220
root -0.613594 17.5225 7.67639 6.49734 4.41266 -6.94273
lowerback 2.1441 0.364908 5.76866
upperback -10.0372 1.11589 1.17584
thorax -11.9492 0.0665986 -2.08328
lowerneck -9.3324 -5.08279 -4.70982
upperneck 25.524 -7.56777 4.83011
head 9.99897 -3.44695 1.6188
rclavicle -1.27222e-014 -3.57812e-015
rhumerus -69.8744 -30.8439 -43.934
rradius 21.4197
rwrist 63.9871
rhand 5.51639 -25.3812
rfingers 7.12502
rthumb 30.8624 -412.809
lclavicle -1.27222e-014 -3.57812e-015
lhumerus -77.4369 49.5639 18.8113
lradius 21.7945
lwrist -26.8704
lhand -15.5124 -4.22295
lfingers 7.12502
lthumb 10.6706 25.4861
rfemur 1.91202 23.2745 27.4286
rtibia 0.996341
rfoot -14.4276 -26.4009
rtoes 6.27665
lfemur 5.21156 -37.6641 -13.6757
ltibia -3.22041
lfoot -9.80586 39.7613
ltoes -5.58524
1221
root -0.59624 17.5222 7.68835 6.37078 4.00241 -6.88049
lowerback 2.09328 0.506852 6.4764
upperback -10.027 1.3084 0.638178
thorax -11.8802 0.0605897 -3.08362
lowerneck -9.54759 -5.02069 -4.10505
upperneck 26.21 -7.63886 4.8385
head 10.2684 -3.40795 1.50635
rclavicle -2.48481e-015 -1.55052e-014
rhumerus -74.8935 -32.7258 -37.4808
rradius 20.1747
rwrist 68.2525
rhand 9.41664 -26.879
rfingers 7.12502
rthumb 34.5728 -413.534
lclavicle -2.48481e-015 -1.55052e-014
lhumerus -81.5764 49.7093 13.283
lradius 20.3045
lwrist -30.3508
lhand -14.1521 -1.12674
lfingers 7.12502
lthumb 11.9825 28.5103
rfemur 2.01926 23.2979 27.3337
rtibia 1.12396
rfoot -14.3715 -26.1111
rtoes 5.88503
lfemur 5.63377 -37.4663 -14.0791
ltibia -3.24223
lfoot -10.1072 39.8672
ltoes -4.96584
1222
root -0.584426 17.5255 7.70311 6.1561 3.64968 -6.80073
lowerback 1.69587 0.477785 6.58947
upperback -9.68449 1.21299 0.498338
thorax -11.2455 0.0234579 -3.27934
lowerneck -10.0675 -4.8593 -3.66426
upperneck 26.676 -7.47649 4.69621
head 10.5081 -3.2887 1.38902
rclavicle -1.70955e-014 2.38542e-014
rhumerus -79.0361 -34.0966 -31.0365
rradius 19.1115
rwrist 73.1575
rhand 12.7127 -28.7297
rfingers 7.12502
rthumb 37.6945 -414.611
lclavicle -1.70955e-014 2.38542e-014
lhumerus -86.4947 50.0227 7.5465
lradius 19.4098
lwrist -35.79
lhand -11.4931 -1.72599
lfingers 7.12502
lthumb 14.5455 27.7441
rfemur 2.34345 23.5245 27.3453
rtibia 1.14836
rfoot -14.3724 -26.0784
rtoes 5.71344
lfemur 6.14415 -37.1403 -14.4924
ltibia -3.31314
lfoot -10.2184 39.8077
ltoes -4.82618
1223
root -0.576507 17.5303 7.71803 5.87349 3.34123 -6.76063
lowerback 2.09821 0.300459 6.29144
upperback -9.83748 1.00353 0.664764
thorax -11.6927 -0.0596006 -2.91492
lowerneck -9.97194 -4.6566 -3.50224
upperneck 27.2253 -7.17889 4.40459
head 10.6592 -3.16437 1.29803
rclavicle -1.41137e-014 3.02153e-014
rhumerus -82.5248 -33.7241 -25.6125
rradius 18.4644
rwrist 77.3305
rhand 15.4704 -30.3346
rfingers 7.12502
rthumb 40.2942 -415.471
lclavicle -1.41137e-014 3.02153e-014
lhumerus -90.7459 48.9557 3.42422
lradius 19.0692
lwrist -40.5434
lhand -8.96152 -1.1122
lfingers 7.12502
lthumb 16.9835 28.1653
rfemur 2.83528 23.9031 27.5089
rtibia 1.08938
rfoot -14.3494 -26.2597
rtoes 5.49306
lfemur 6.72762 -36.6924 -14.8444
ltibia -3.46978
lfoot -10.0114 39.616
ltoes -5.26374
1224
root -0.564451 17.5305 7.72607 5.66476 2.91979 -6.74892
lowerback 2.16268 -0.00440633 5.57557
upperback -9.73477 0.582612 1.21634
thorax -11.6497 -0.16149 -1.86876
lowerneck -10.0913 -4.23842 -3.36065
upperneck 27.5473 -6.47912 3.88261
head 10.7436 -2.88421 1.17332
rclavicle 1.59028e-015 3.97569e-015
rhumerus -83.7762 -33.0204 -22.5084
rradius 18.1673
rwrist 80.2787
rhand 17.6701 -31.6114
rfingers 7.12502
rthumb 42.3588 -416.08
lclavicle 1.59028e-015 3.97569e-015
lhumerus -94.4475 48.2055 0.704446
lradius 19.1063
lwrist -43.5315
lhand -6.19798 -1.15353
lfingers 7.12502
lthumb 19.642 27.8742
rfemur 3.13703 23.9444 27.5432
rtibia 1.03333
rfoot -14.1971 -25.9997
rtoes 5.01218
lfemur 7.26119 -36.4551 -15.2334
ltibia -3.56378
lfoot -10.043 39.7262
ltoes -5.12668
1225
root -0.551511 17.5284 7.7324 5.54029 2.45068 -6.6685
lowerback 2.12512 -0.053528 5.45619
upperback -9.61945 0.498163 1.235
thorax -11.4978 -0.185575 -1.77288
lowerneck -10.3233 -4.03883 -2.97859
upperneck 27.9923 -6.26514 3.77168
head 10.9299 -2.75091 1.09086
rclavicle -1.83876e-015 1.09332e-014
rhumerus -85.0586 -32.4765 -20.7404
rradius 18.1239
rwrist 81.9988
rhand 18.8343 -32.5147
rfingers 7.12502
rthumb 43.4476 -416.601
lclavicle -1.83876e-015 1.09332e-014
lhumerus -95.5743 47.6365 0.0429918
lradius 19.192
lwrist -44.8511
lhand -2.96752 -1.54819
lfingers 7.12502
lthumb 22.7451 27.1311
rfemur 3.31283 23.8268 27.3927
rtibia 0.945447
rfoot -14.0321 -25.5088
rtoes 4.62732
lfemur 7.69932 -36.329 -15.6869
ltibia -3.60049
lfoot -10.4363 39.9606
ltoes -4.2148
1226
root -0.541676 17.5275 7.73545 5.4587 2.06748 -6.6467
lowerback 2.09374 -0.104075 5.3552
upperback -9.52372 0.416564 1.26775
thorax -11.3726 -0.210257 -1.67247
lowerneck -10.5333 -3.92833 -2.96978
upperneck 28.2959 -6.17573 3.9518
head 11.0897 -2.68124 1.16183
rclavicle 4.82053e-015 -1.43125e-014
rhumerus -85.7949 -31.9476 -19.8238
rradius 18.1322
rwrist 82.6085
rhand 19.0846 -32.9798
rfingers 7.12502
rthumb 43.6814 -416.98
lclavicle 4.82053e-015 -1.43125e-014
lhumerus -96.069 47.2953 -0.183872
lradius 19.2936
lwrist -44.9655
lhand 0.187908 -1.2136
lfingers 7.12502
lthumb 25.7703 27.0612
rfemur 3.43354 23.8467 27.3271
rtibia 0.876937
rfoot -13.9345 -25.2042
rtoes 4.51149
lfemur 7.92233 -36.0843 -15.8929
ltibia -3.58023
lfoot -10.7502 40.0207
ltoes -3.49561
1227
root -0.534826 17.5252 7.72999 5.47022 1.73776 -6.70314
lowerback 2.09272 -0.139346 5.31548
upperback -9.50338 0.365926 1.29488
thorax -11.3517 -0.229385 -1.61521
lowerneck -10.6099 -3.83757 -2.82577
upperneck 28.5476 -6.11635 4.03183
head 11.1968 -2.62557 1.17296
rclavicle 3.52843e-015 2.42517e-014
rhumerus -85.9163 -31.3398 -20.1599
rradius 18.3406
rwrist 81.3402
rhand 19.0474 -33.1378
rfingers 7.12502
rthumb 43.6466 -417.151
lclavicle 3.52843e-015 2.42517e-014
lhumerus -95.9797 47.0798 -0.0809224
lradius 19.3213
lwrist -44.382
lhand 2.92457 -0.41894
lfingers 7.12502
lthumb 28.3885 27.4483
rfemur 3.35038 23.875 27.3112
rtibia 0.924342
rfoot -13.8656 -24.9306
rtoes 4.44946
lfemur 7.86 -35.7093 -15.7986
ltibia -3.49749
lfoot -10.9018 39.9317
ltoes -3.1036
